<svg width="1104" height="91" viewBox="0 0 1104 91" fill="none" xmlns="http://www.w3.org/2000/svg">
<path opacity="0.3" d="M63.35 27.58L60.83 39.37H71.63V53.23H57.86L54.89 67H40.49L43.46 53.23H28.52L25.55 67H11.15L14.12 53.23H0.8V39.37H17.09L19.61 27.58H6.56V13.72H22.49L25.37 0.399999H39.77L36.89 13.72H51.83L54.71 0.399999H69.11L66.23 13.72H77.39V27.58H63.35ZM48.95 27.58H34.01L31.49 39.37H46.43L48.95 27.58ZM172.907 3.82L156.437 67H137.807L127.727 25.42L117.287 67H98.6567L82.6367 3.82H99.1067L108.197 49.81L119.447 3.82H136.367L147.167 49.81L156.347 3.82H172.907ZM177.565 41.8C177.565 36.64 178.525 32.11 180.445 28.21C182.425 24.31 185.095 21.31 188.455 19.21C191.815 17.11 195.565 16.06 199.705 16.06C203.245 16.06 206.335 16.78 208.975 18.22C211.675 19.66 213.745 21.55 215.185 23.89V16.78H230.575V67H215.185V59.89C213.685 62.23 211.585 64.12 208.885 65.56C206.245 67 203.155 67.72 199.615 67.72C195.535 67.72 191.815 66.67 188.455 64.57C185.095 62.41 182.425 59.38 180.445 55.48C178.525 51.52 177.565 46.96 177.565 41.8ZM215.185 41.89C215.185 38.05 214.105 35.02 211.945 32.8C209.845 30.58 207.265 29.47 204.205 29.47C201.145 29.47 198.535 30.58 196.375 32.8C194.275 34.96 193.225 37.96 193.225 41.8C193.225 45.64 194.275 48.7 196.375 50.98C198.535 53.2 201.145 54.31 204.205 54.31C207.265 54.31 209.845 53.2 211.945 50.98C214.105 48.76 215.185 45.73 215.185 41.89ZM257.099 25.15C258.899 22.39 261.149 20.23 263.849 18.67C266.549 17.05 269.549 16.24 272.849 16.24V32.53H268.619C264.779 32.53 261.899 33.37 259.979 35.05C258.059 36.67 257.099 39.55 257.099 43.69V67H241.709V16.78H257.099V25.15ZM295.595 25.15C297.395 22.39 299.645 20.23 302.345 18.67C305.045 17.05 308.045 16.24 311.345 16.24V32.53H307.115C303.275 32.53 300.395 33.37 298.475 35.05C296.555 36.67 295.595 39.55 295.595 43.69V67H280.205V16.78H295.595V25.15ZM366.041 41.08C366.041 42.52 365.951 44.02 365.771 45.58H330.941C331.181 48.7 332.171 51.1 333.911 52.78C335.711 54.4 337.901 55.21 340.481 55.21C344.321 55.21 346.991 53.59 348.491 50.35H364.871C364.031 53.65 362.501 56.62 360.281 59.26C358.121 61.9 355.391 63.97 352.091 65.47C348.791 66.97 345.101 67.72 341.021 67.72C336.101 67.72 331.721 66.67 327.881 64.57C324.041 62.47 321.041 59.47 318.881 55.57C316.721 51.67 315.641 47.11 315.641 41.89C315.641 36.67 316.691 32.11 318.791 28.21C320.951 24.31 323.951 21.31 327.791 19.21C331.631 17.11 336.041 16.06 341.021 16.06C345.881 16.06 350.201 17.08 353.981 19.12C357.761 21.16 360.701 24.07 362.801 27.85C364.961 31.63 366.041 36.04 366.041 41.08ZM350.291 37.03C350.291 34.39 349.391 32.29 347.591 30.73C345.791 29.17 343.541 28.39 340.841 28.39C338.261 28.39 336.071 29.14 334.271 30.64C332.531 32.14 331.451 34.27 331.031 37.03H350.291ZM404.76 16.24C410.64 16.24 415.32 18.16 418.8 22C422.34 25.78 424.11 31 424.11 37.66V67H408.81V39.73C408.81 36.37 407.94 33.76 406.2 31.9C404.46 30.04 402.12 29.11 399.18 29.11C396.24 29.11 393.9 30.04 392.16 31.9C390.42 33.76 389.55 36.37 389.55 39.73V67H374.16V16.78H389.55V23.44C391.11 21.22 393.21 19.48 395.85 18.22C398.49 16.9 401.46 16.24 404.76 16.24ZM480.255 3.82V16.15H463.515V67H448.125V16.15H431.385V3.82H480.255ZM535.318 41.08C535.318 42.52 535.228 44.02 535.048 45.58H500.218C500.458 48.7 501.448 51.1 503.188 52.78C504.988 54.4 507.178 55.21 509.758 55.21C513.598 55.21 516.268 53.59 517.768 50.35H534.148C533.308 53.65 531.778 56.62 529.558 59.26C527.398 61.9 524.668 63.97 521.368 65.47C518.068 66.97 514.378 67.72 510.298 67.72C505.378 67.72 500.998 66.67 497.158 64.57C493.318 62.47 490.318 59.47 488.158 55.57C485.998 51.67 484.918 47.11 484.918 41.89C484.918 36.67 485.968 32.11 488.068 28.21C490.228 24.31 493.228 21.31 497.068 19.21C500.908 17.11 505.318 16.06 510.298 16.06C515.158 16.06 519.478 17.08 523.258 19.12C527.038 21.16 529.978 24.07 532.078 27.85C534.238 31.63 535.318 36.04 535.318 41.08ZM519.568 37.03C519.568 34.39 518.668 32.29 516.868 30.73C515.068 29.17 512.818 28.39 510.118 28.39C507.538 28.39 505.348 29.14 503.548 30.64C501.808 32.14 500.728 34.27 500.308 37.03H519.568ZM540.377 41.89C540.377 36.67 541.427 32.11 543.527 28.21C545.687 24.31 548.657 21.31 552.437 19.21C556.277 17.11 560.657 16.06 565.577 16.06C571.877 16.06 577.127 17.71 581.327 21.01C585.587 24.31 588.377 28.96 589.697 34.96H573.317C571.937 31.12 569.267 29.2 565.307 29.2C562.487 29.2 560.237 30.31 558.557 32.53C556.877 34.69 556.037 37.81 556.037 41.89C556.037 45.97 556.877 49.12 558.557 51.34C560.237 53.5 562.487 54.58 565.307 54.58C569.267 54.58 571.937 52.66 573.317 48.82H589.697C588.377 54.7 585.587 59.32 581.327 62.68C577.067 66.04 571.817 67.72 565.577 67.72C560.657 67.72 556.277 66.67 552.437 64.57C548.657 62.47 545.687 59.47 543.527 55.57C541.427 51.67 540.377 47.11 540.377 41.89ZM628.8 16.24C634.56 16.24 639.18 18.16 642.66 22C646.14 25.78 647.88 31 647.88 37.66V67H632.58V39.73C632.58 36.37 631.71 33.76 629.97 31.9C628.23 30.04 625.89 29.11 622.95 29.11C620.01 29.11 617.67 30.04 615.93 31.9C614.19 33.76 613.32 36.37 613.32 39.73V67H597.93V0.399999H613.32V23.53C614.88 21.31 617.01 19.54 619.71 18.22C622.41 16.9 625.44 16.24 628.8 16.24ZM697.904 55.84H674.324L670.544 67H654.434L677.294 3.82H695.114L717.974 67H701.684L697.904 55.84ZM693.944 43.96L686.114 20.83L678.374 43.96H693.944ZM721.872 41.89C721.872 36.67 722.922 32.11 725.022 28.21C727.182 24.31 730.152 21.31 733.932 19.21C737.772 17.11 742.152 16.06 747.072 16.06C753.372 16.06 758.622 17.71 762.822 21.01C767.082 24.31 769.872 28.96 771.192 34.96H754.812C753.432 31.12 750.762 29.2 746.802 29.2C743.982 29.2 741.732 30.31 740.052 32.53C738.372 34.69 737.532 37.81 737.532 41.89C737.532 45.97 738.372 49.12 740.052 51.34C741.732 53.5 743.982 54.58 746.802 54.58C750.762 54.58 753.432 52.66 754.812 48.82H771.192C769.872 54.7 767.082 59.32 762.822 62.68C758.562 66.04 753.312 67.72 747.072 67.72C742.152 67.72 737.772 66.67 733.932 64.57C730.152 62.47 727.182 59.47 725.022 55.57C722.922 51.67 721.872 47.11 721.872 41.89ZM776.364 41.8C776.364 36.64 777.324 32.11 779.244 28.21C781.224 24.31 783.894 21.31 787.254 19.21C790.614 17.11 794.364 16.06 798.504 16.06C802.044 16.06 805.134 16.78 807.774 18.22C810.474 19.66 812.544 21.55 813.984 23.89V16.78H829.374V67H813.984V59.89C812.484 62.23 810.384 64.12 807.684 65.56C805.044 67 801.954 67.72 798.414 67.72C794.334 67.72 790.614 66.67 787.254 64.57C783.894 62.41 781.224 59.38 779.244 55.48C777.324 51.52 776.364 46.96 776.364 41.8ZM813.984 41.89C813.984 38.05 812.904 35.02 810.744 32.8C808.644 30.58 806.064 29.47 803.004 29.47C799.944 29.47 797.334 30.58 795.174 32.8C793.074 34.96 792.024 37.96 792.024 41.8C792.024 45.64 793.074 48.7 795.174 50.98C797.334 53.2 799.944 54.31 803.004 54.31C806.064 54.31 808.644 53.2 810.744 50.98C812.904 48.76 813.984 45.73 813.984 41.89ZM837.448 41.8C837.448 36.64 838.408 32.11 840.328 28.21C842.308 24.31 844.978 21.31 848.338 19.21C851.698 17.11 855.448 16.06 859.588 16.06C862.888 16.06 865.888 16.75 868.588 18.13C871.348 19.51 873.508 21.37 875.068 23.71V0.399999H890.458V67H875.068V59.8C873.628 62.2 871.558 64.12 868.858 65.56C866.218 67 863.128 67.72 859.588 67.72C855.448 67.72 851.698 66.67 848.338 64.57C844.978 62.41 842.308 59.38 840.328 55.48C838.408 51.52 837.448 46.96 837.448 41.8ZM875.068 41.89C875.068 38.05 873.988 35.02 871.828 32.8C869.728 30.58 867.148 29.47 864.088 29.47C861.028 29.47 858.418 30.58 856.258 32.8C854.158 34.96 853.108 37.96 853.108 41.8C853.108 45.64 854.158 48.7 856.258 50.98C858.418 53.2 861.028 54.31 864.088 54.31C867.148 54.31 869.728 53.2 871.828 50.98C873.988 48.76 875.068 45.73 875.068 41.89ZM948.932 41.08C948.932 42.52 948.842 44.02 948.662 45.58H913.832C914.072 48.7 915.062 51.1 916.802 52.78C918.602 54.4 920.792 55.21 923.372 55.21C927.212 55.21 929.882 53.59 931.382 50.35H947.762C946.922 53.65 945.392 56.62 943.172 59.26C941.012 61.9 938.282 63.97 934.982 65.47C931.682 66.97 927.992 67.72 923.912 67.72C918.992 67.72 914.612 66.67 910.772 64.57C906.932 62.47 903.932 59.47 901.772 55.57C899.612 51.67 898.532 47.11 898.532 41.89C898.532 36.67 899.582 32.11 901.682 28.21C903.842 24.31 906.842 21.31 910.682 19.21C914.522 17.11 918.932 16.06 923.912 16.06C928.772 16.06 933.092 17.08 936.872 19.12C940.652 21.16 943.592 24.07 945.692 27.85C947.852 31.63 948.932 36.04 948.932 41.08ZM933.182 37.03C933.182 34.39 932.282 32.29 930.482 30.73C928.682 29.17 926.432 28.39 923.732 28.39C921.152 28.39 918.962 29.14 917.162 30.64C915.422 32.14 914.342 34.27 913.922 37.03H933.182ZM1021.13 16.24C1027.37 16.24 1032.32 18.13 1035.98 21.91C1039.7 25.69 1041.56 30.94 1041.56 37.66V67H1026.26V39.73C1026.26 36.49 1025.39 34 1023.65 32.26C1021.97 30.46 1019.63 29.56 1016.63 29.56C1013.63 29.56 1011.26 30.46 1009.52 32.26C1007.84 34 1007 36.49 1007 39.73V67H991.701V39.73C991.701 36.49 990.831 34 989.091 32.26C987.411 30.46 985.071 29.56 982.071 29.56C979.071 29.56 976.701 30.46 974.961 32.26C973.281 34 972.441 36.49 972.441 39.73V67H957.051V16.78H972.441V23.08C974.001 20.98 976.041 19.33 978.561 18.13C981.081 16.87 983.931 16.24 987.111 16.24C990.891 16.24 994.251 17.05 997.191 18.67C1000.19 20.29 1002.53 22.6 1004.21 25.6C1005.95 22.84 1008.32 20.59 1011.32 18.85C1014.32 17.11 1017.59 16.24 1021.13 16.24ZM1103.62 16.78L1072.12 90.85H1055.56L1067.08 65.29L1046.65 16.78H1063.84L1075.45 48.19L1086.97 16.78H1103.62Z" fill="#ED2E5C"/>
</svg>
